<?xml version="1.0" encoding="UTF-8"?>
<svg id="Layer_1" data-name="Layer 1" xmlns="http://www.w3.org/2000/svg" viewBox="0 0 283.5 281.25">
  <defs>
    <style>
      .cls-1 {
        fill: #fff;
      }

      .cls-2 {
        fill: #f08330;
      }
    </style>
  </defs>
  <polygon class="cls-1" points="213.29 144.95 199.1 159.15 184.9 144.95 176.25 136.3 158.16 118.21 118.46 118.21 136.54 136.3 145.19 144.95 163.28 163.04 179.24 179 159.39 198.85 141.75 216.49 88.29 163.04 70.2 144.95 27.78 144.95 45.87 163.04 68.41 185.58 68.41 226.27 91.23 226.27 91.23 208.4 141.75 258.92 237.63 163.04 255.72 144.95 213.29 144.95"/>
  <polygon class="cls-2" points="237.63 118.21 215.28 95.86 215.28 55.04 192.46 55.04 192.46 73.04 141.75 22.33 45.87 118.21 27.78 136.3 70.21 136.3 83.52 122.98 96.84 136.3 105.49 144.95 123.57 163.04 163.28 163.04 145.19 144.95 136.54 136.3 118.46 118.21 103.37 103.13 123.23 83.28 141.75 64.76 195.21 118.21 213.29 136.3 255.72 136.3 237.63 118.21"/>
</svg>